<svg width="28" height="24" viewBox="0 0 28 24" fill="none" xmlns="http://www.w3.org/2000/svg">
<path d="M14 23.6389C13.6014 23.6389 13.2171 23.5019 12.9176 23.2529C11.7864 22.3144 10.6959 21.4324 9.73373 20.6544L9.72882 20.6503C6.90793 18.3692 4.47198 16.3992 2.7771 14.4586C0.882477 12.2891 0 10.2322 0 7.98512C0 5.80189 0.78891 3.78772 2.22125 2.31337C3.67068 0.821601 5.65952 0 7.82202 0C9.43829 0 10.9185 0.484892 12.2214 1.4411C12.8789 1.92376 13.4749 2.51447 14 3.20349C14.5253 2.51447 15.1211 1.92376 15.7788 1.4411C17.0817 0.484892 18.5619 0 20.1782 0C22.3405 0 24.3295 0.821601 25.779 2.31337C27.2113 3.78772 28 5.80189 28 7.98512C28 10.2322 27.1177 12.2891 25.2231 14.4584C23.5282 16.3992 21.0925 18.369 18.272 20.6499C17.3082 21.4291 16.2159 22.3126 15.0822 23.2534C14.7829 23.5019 14.3984 23.6389 14 23.6389ZM7.82202 1.55644C6.12308 1.55644 4.56235 2.19986 3.42694 3.3683C2.27466 4.55438 1.63998 6.19393 1.63998 7.98512C1.63998 9.87502 2.38019 11.5653 4.03983 13.4655C5.64392 15.3023 8.02988 17.2317 10.7924 19.4658L10.7976 19.4699C11.7634 20.251 12.8582 21.1364 13.9977 22.0819C15.144 21.1346 16.2405 20.2477 17.2082 19.4654C19.9706 17.2313 22.3563 15.3023 23.9604 13.4655C25.6198 11.5653 26.36 9.87502 26.36 7.98512C26.36 6.19393 25.7253 4.55438 24.5731 3.3683C23.4379 2.19986 21.8769 1.55644 20.1782 1.55644C18.9336 1.55644 17.791 1.93187 16.782 2.67218C15.8829 3.33222 15.2565 4.16659 14.8893 4.75041C14.7005 5.05063 14.3681 5.22983 14 5.22983C13.6319 5.22983 13.2995 5.05063 13.1107 4.75041C12.7437 4.16659 12.1173 3.33222 11.218 2.67218C10.209 1.93187 9.06638 1.55644 7.82202 1.55644Z" fill="#CDCDCD"/>
</svg>
