<svg width="786" height="39" viewBox="0 0 786 39" fill="none" xmlns="http://www.w3.org/2000/svg">
<path d="M436.519 8.39692C436.493 8.37125 436.493 8.37125 436.467 8.34557C436.128 8.01182 435.632 7.78076 435.111 7.78076H409.929C409.408 7.78076 408.912 7.98615 408.574 8.34557C408.235 8.67933 408 9.16712 408 9.68058V28.3194C408 28.8328 408.209 29.3206 408.574 29.6544C408.912 29.9881 409.408 30.2192 409.929 30.2192H435.111C435.632 30.2192 436.128 30.0138 436.467 29.6544C436.805 29.3206 437.04 28.8328 437.04 28.3194V9.68058C437.04 9.19279 436.831 8.73067 436.519 8.39692ZM435.632 28.3194C435.632 28.4477 435.58 28.6018 435.476 28.6788C435.372 28.7815 435.241 28.8328 435.111 28.8328H409.929C409.799 28.8328 409.642 28.7815 409.564 28.6788C409.46 28.5761 409.408 28.4477 409.408 28.3194V9.68058C409.408 9.52654 409.46 9.39818 409.564 9.32116C409.668 9.21846 409.799 9.16712 409.929 9.16712H435.111C435.241 9.16712 435.398 9.21846 435.476 9.32116L435.502 9.34683C435.58 9.44952 435.632 9.55222 435.632 9.68058V28.3194Z" fill="#010101" stroke="#010101" stroke-width="0.4"/>
<path d="M432.66 11.9141C432.347 11.606 431.93 11.4006 431.435 11.4006H413.604C413.135 11.4006 412.692 11.5803 412.379 11.8884C412.066 12.1965 411.858 12.633 411.858 13.0951V23.8265V24.8791C411.858 25.3412 412.04 25.7777 412.379 26.0857C412.692 26.3938 413.135 26.5992 413.604 26.5992H424.709H431.435C431.904 26.5992 432.347 26.4195 432.66 26.0857C432.973 25.7777 433.181 25.3412 433.181 24.8791V21.7983V13.1207C433.181 12.6586 432.999 12.2222 432.66 11.9141ZM413.604 25.1872V25.2128C413.526 25.2128 413.422 25.1872 413.37 25.1102C413.317 25.0588 413.265 24.9818 413.265 24.8791V24.1089L417.593 19.8215L421.268 23.4671L423.015 25.1872H413.604ZM431.774 24.9048C431.774 24.9818 431.748 25.0845 431.67 25.1358C431.617 25.1872 431.513 25.2385 431.435 25.2385H424.996V25.2128L424.579 24.8021L422.754 23.0049L427.733 18.0757L431.774 22.0807V24.9048ZM431.774 20.1295L428.229 16.6123C427.968 16.3556 427.525 16.3299 427.238 16.6123L421.764 22.0294L418.088 18.3838C417.827 18.127 417.384 18.1014 417.097 18.3838L413.265 22.1834V13.1207C413.265 13.018 413.291 12.941 413.37 12.8897C413.422 12.8383 413.526 12.787 413.604 12.787H431.435C431.513 12.787 431.617 12.8127 431.67 12.8897C431.722 12.941 431.774 13.0437 431.774 13.1207V20.1295Z" fill="#010101" stroke="#010101" stroke-width="0.4"/>
<path d="M421.659 18.2811C422.638 18.2811 423.432 17.4995 423.432 16.5353C423.432 15.5712 422.638 14.7896 421.659 14.7896C420.68 14.7896 419.887 15.5712 419.887 16.5353C419.887 17.4995 420.68 18.2811 421.659 18.2811Z" fill="#010101" stroke="#010101" stroke-width="0.4"/>
<path d="M47.58 15.4C47.58 13.46 46.32 11.94 42.98 11.94C42.1 11.94 41.02 11.96 40.16 12C39.48 12.02 38.94 12.58 38.94 13.24V24.78C38.94 25.44 39.5 26.02 40.16 26.04C41 26.06 42.02 26.08 42.84 26.08C45.8 26.08 48.04 24.76 48.04 21.88C48.04 20.02 46.96 18.96 45.58 18.6C46.78 18.02 47.58 17 47.58 15.4ZM41.4 19.98H43.14C44.68 19.98 45.58 20.58 45.58 21.76C45.58 23.08 44.68 23.78 43.02 23.78C42.32 23.78 41.74 23.72 41.4 23.68V19.98ZM41.4 17.84V14.3C41.84 14.26 42.38 14.24 42.94 14.24C44.26 14.24 45.14 14.84 45.14 15.98C45.14 17.26 44.2 17.84 43.06 17.84H41.4Z" fill="black"/>
<path d="M58.6 19.7V12.72C58.6 12.28 58.22 11.9 57.76 11.9C57.28 11.9 56.9 12.28 56.9 12.72V20.02C56.9 24.12 59.34 26.18 62.7 26.18C65.56 26.18 68.12 24.44 68.12 20.16V12.72C68.12 12.28 67.74 11.9 67.28 11.9C66.8 11.9 66.42 12.28 66.42 12.72V19.82C66.42 23 65 24.58 62.7 24.58C60.08 24.58 58.6 22.74 58.6 19.7Z" fill="black"/>
<path d="M55 28H70.02V29H55V28Z" fill="black"/>
<line x1="84" y1="4.37114e-08" x2="84" y2="39" stroke="#CDCDCD" stroke-width="2"/>
<line x1="25" y1="4.37114e-08" x2="25" y2="39" stroke="#CDCDCD" stroke-width="2"/>
<line x1="166" y1="4.37114e-08" x2="166" y2="39" stroke="#CDCDCD" stroke-width="2"/>
<line x1="281" y1="4.37114e-08" x2="281" y2="39" stroke="#CDCDCD" stroke-width="2"/>
<line x1="363" y1="4.37114e-08" x2="363" y2="39" stroke="#CDCDCD" stroke-width="2"/>
<line x1="451" y1="4.37114e-08" x2="451" y2="39" stroke="#CDCDCD" stroke-width="2"/>
<line x1="510" y1="4.37114e-08" x2="510" y2="39" stroke="#CDCDCD" stroke-width="2"/>
<line x1="562" y1="4.37114e-08" x2="562" y2="39" stroke="#CDCDCD" stroke-width="2"/>
<line x1="609" y1="4.37114e-08" x2="609" y2="39" stroke="#CDCDCD" stroke-width="2"/>
<line x1="662" y1="4.37114e-08" x2="662" y2="39" stroke="#CDCDCD" stroke-width="2"/>
<line x1="738" y1="4.37114e-08" x2="738" y2="39" stroke="#CDCDCD" stroke-width="2"/>
<path d="M474.82 19.58L475.98 22.4C476.14 22.8 476.5 23.16 477.18 23.16C477.8 23.16 478.32 22.66 478.32 22.04C478.32 21.88 478.28 21.72 478.22 21.56L473.26 9.9C473.06 9.44 472.68 8.9 471.92 8.9C471.12 8.9 470.74 9.44 470.54 9.9L465.56 21.6C465.5 21.74 465.46 21.9 465.46 22.04C465.46 22.64 465.94 23.16 466.6 23.16C467.08 23.16 467.48 22.94 467.66 22.48L468.84 19.58H474.82ZM471.84 12.26L473.88 17.28H469.78L471.84 12.26Z" fill="black"/>
<path d="M397 8H389C388.448 8 388 8.44773 388 9.00001C388 9.55229 388.448 10 389 10H394.586L384.293 20.2929C383.902 20.6835 383.902 21.3166 384.293 21.7071C384.488 21.9024 384.744 22 385 22C385.256 22 385.512 21.9024 385.707 21.7071L396 11.4142V17C396 17.5523 396.448 18 397 18C397.552 18 398 17.5523 398 17V9.00001C398 8.44773 397.552 8 397 8Z" fill="black"/>
<path d="M393 18C392.448 18 392 18.4477 392 19V28H378V14H387C387.552 14 388 13.5522 388 13C388 12.4477 387.552 12 387 12H377C376.448 12 376 12.4477 376 13V29C376 29.5523 376.448 30 377 30H393C393.552 30 394 29.5523 394 29V19C394 18.4477 393.552 18 393 18Z" fill="black"/>
<path d="M99.14 15.24V25C99.14 25.64 99.66 26.16 100.3 26.16C100.92 26.16 101.44 25.64 101.44 25V13.12C101.44 12.48 100.92 11.96 100.28 11.96C99.98 11.96 99.62 12.08 99.38 12.26L96.92 14.12C96.64 14.34 96.48 14.66 96.48 15C96.48 15.24 96.56 15.5 96.74 15.7C96.96 15.96 97.28 16.1 97.62 16.1C97.86 16.1 98.12 16.02 98.34 15.84L99.14 15.24ZM106.679 15.24V25C106.679 25.64 107.199 26.16 107.839 26.16C108.459 26.16 108.979 25.64 108.979 25V13.12C108.979 12.48 108.459 11.96 107.819 11.96C107.519 11.96 107.159 12.08 106.919 12.26L104.459 14.12C104.179 14.34 104.019 14.66 104.019 15C104.019 15.24 104.099 15.5 104.279 15.7C104.499 15.96 104.819 16.1 105.159 16.1C105.399 16.1 105.659 16.02 105.879 15.84L106.679 15.24ZM118.896 19.92C119.456 19.3 120.176 18.94 120.956 18.94C122.476 18.94 123.316 19.98 123.316 21.42C123.316 22.92 122.396 24.08 120.796 24.08C120.036 24.08 119.516 23.96 118.896 23.56V19.92ZM116.596 28.88C116.596 29.5 117.096 30 117.756 30C118.396 30 118.896 29.5 118.896 28.88V25.78C119.416 26.08 120.196 26.22 120.996 26.22C123.876 26.22 125.756 24.1 125.756 21.36C125.756 18.7 124.156 16.78 121.676 16.78C120.516 16.78 119.456 17.26 118.896 17.84C118.896 17.28 118.416 16.86 117.776 16.86C117.056 16.86 116.596 17.32 116.596 18.16V28.88ZM131.949 23.96C131.669 23.96 131.389 24.06 130.889 24.06C130.129 24.06 129.849 23.42 129.849 22.44V19.16H131.629C132.249 19.16 132.749 18.66 132.749 18.08C132.749 17.5 132.249 17 131.629 17H129.849V15.62C129.849 15 129.349 14.5 128.709 14.5C128.049 14.5 127.549 15 127.549 15.62V22.58C127.549 24.88 128.309 26.2 130.349 26.2C131.089 26.2 131.669 26.1 132.249 25.8C132.669 25.58 132.869 25.24 132.869 24.88C132.869 24.42 132.589 23.96 131.949 23.96Z" fill="black"/>
<path d="M153 18L147.5 23L142 18" stroke="#979797" stroke-width="2" stroke-linecap="round" stroke-linejoin="round"/>
<path d="M12 18L6.5 23L1 18" stroke="#979797" stroke-width="2" stroke-linecap="round" stroke-linejoin="round"/>
<line x1="180" y1="13" x2="201" y2="13" stroke="black" stroke-width="2" stroke-linecap="round"/>
<line x1="180" y1="25" x2="201" y2="25" stroke="black" stroke-width="2" stroke-linecap="round"/>
<line x1="180" y1="19" x2="192" y2="19" stroke="black" stroke-width="2" stroke-linecap="round"/>
<line x1="680" y1="14" x2="694" y2="14" stroke="black" stroke-width="2" stroke-linecap="round"/>
<line x1="680" y1="26" x2="694" y2="26" stroke="black" stroke-width="2" stroke-linecap="round"/>
<line x1="680" y1="20" x2="694" y2="20" stroke="black" stroke-width="2" stroke-linecap="round"/>
<line x1="213" y1="13" x2="234" y2="13" stroke="black" stroke-width="2" stroke-linecap="round"/>
<line x1="213" y1="25" x2="234" y2="25" stroke="black" stroke-width="2" stroke-linecap="round"/>
<line x1="218" y1="19" x2="230" y2="19" stroke="black" stroke-width="2" stroke-linecap="round"/>
<line x1="246" y1="13" x2="267" y2="13" stroke="black" stroke-width="2" stroke-linecap="round"/>
<line x1="246" y1="25" x2="267" y2="25" stroke="black" stroke-width="2" stroke-linecap="round"/>
<line x1="255" y1="19" x2="267" y2="19" stroke="black" stroke-width="2" stroke-linecap="round"/>
<line x1="465.5" y1="26.5" x2="478.5" y2="26.5" stroke="black" stroke-width="3" stroke-linecap="round"/>
<path d="M524.28 18.92C523.88 19.14 523.66 19.38 523.66 19.76C523.66 20.14 523.88 20.4 524.28 20.64L531.3 24.72C531.5 24.84 531.7 24.88 531.88 24.88C532.46 24.88 532.94 24.44 532.94 23.84C532.94 23.3 532.68 23.04 532.3 22.82L526.8 19.76L532.3 16.74C532.68 16.52 532.94 16.18 532.94 15.72C532.94 15.16 532.5 14.66 531.9 14.66C531.7 14.66 531.5 14.72 531.28 14.84L524.28 18.92ZM540.414 14.84C540.194 14.72 539.994 14.66 539.794 14.66C539.194 14.66 538.754 15.16 538.754 15.72C538.754 16.18 539.014 16.52 539.394 16.74L544.894 19.76L539.394 22.82C539.014 23.04 538.754 23.3 538.754 23.84C538.754 24.44 539.234 24.88 539.814 24.88C539.994 24.88 540.194 24.84 540.394 24.72L547.414 20.64C547.814 20.4 548.034 20.14 548.034 19.76C548.034 19.38 547.814 19.14 547.414 18.92L540.414 14.84Z" fill="black"/>
<path d="M576.32 20.8C576.74 21.12 577.06 21.68 577.06 22.66V24.9C577.06 26.94 577.86 27.96 580.2 27.96H580.52C581.28 27.96 581.74 27.52 581.74 26.86C581.74 26.28 581.32 25.8 580.66 25.8C579.72 25.8 579.36 25.42 579.36 24.1V21.76C579.36 20.46 578.76 19.6 577.86 19.48C578.76 19.36 579.36 18.5 579.36 17.2V14.86C579.36 13.54 579.72 13.16 580.66 13.16C581.32 13.16 581.74 12.68 581.74 12.1C581.74 11.44 581.28 11 580.52 11H580.2C577.86 11 577.06 12.02 577.06 14.06V16.3C577.06 17.28 576.76 17.84 576.32 18.18C575.54 18.78 575.28 19.02 575.28 19.48C575.28 19.94 575.54 20.18 576.32 20.8ZM586.932 15.98C586.932 15.36 586.432 14.86 585.792 14.86C585.132 14.86 584.632 15.36 584.632 15.98V23.04C584.632 23.66 585.132 24.16 585.792 24.16C586.432 24.16 586.932 23.66 586.932 23.04V15.98ZM585.832 10.42C585.052 10.42 584.392 10.94 584.392 11.76C584.392 12.68 585.052 13.2 585.832 13.2C586.492 13.2 587.152 12.68 587.152 11.76C587.152 10.94 586.492 10.42 585.832 10.42ZM595.259 18.18C594.819 17.84 594.519 17.28 594.519 16.3V14.06C594.519 12.02 593.719 11 591.379 11H591.059C590.299 11 589.839 11.44 589.839 12.1C589.839 12.68 590.259 13.16 590.919 13.16C591.859 13.16 592.219 13.54 592.219 14.86V17.2C592.219 18.5 592.819 19.36 593.719 19.48C592.819 19.6 592.219 20.46 592.219 21.76V24.1C592.219 25.42 591.859 25.8 590.919 25.8C590.259 25.8 589.839 26.28 589.839 26.86C589.839 27.52 590.299 27.96 591.059 27.96H591.379C593.719 27.96 594.519 26.94 594.519 24.9V22.66C594.519 21.68 594.839 21.12 595.259 20.8C596.039 20.18 596.299 19.94 596.299 19.48C596.299 19.02 596.039 18.78 595.259 18.18Z" fill="black"/>
<path d="M497 18L491.5 23L486 18" stroke="#979797" stroke-width="2" stroke-linecap="round" stroke-linejoin="round"/>
<line x1="295" y1="13" x2="316" y2="13" stroke="black" stroke-width="2" stroke-linecap="round"/>
<line x1="295" y1="25" x2="316" y2="25" stroke="black" stroke-width="2" stroke-linecap="round"/>
<path d="M316 21L311 19L316 17" stroke="#010101" stroke-width="1.6" stroke-linecap="round" stroke-linejoin="round"/>
<path d="M328 21L333 19L328 17" stroke="#010101" stroke-width="1.6" stroke-linecap="round" stroke-linejoin="round"/>
<line x1="295" y1="19" x2="307" y2="19" stroke="black" stroke-width="2" stroke-linecap="round"/>
<line x1="328" y1="13" x2="349" y2="13" stroke="black" stroke-width="2" stroke-linecap="round"/>
<line x1="328" y1="25" x2="349" y2="25" stroke="black" stroke-width="2" stroke-linecap="round"/>
<line x1="337" y1="19" x2="349" y2="19" stroke="black" stroke-width="2" stroke-linecap="round"/>
<path d="M631.12 20L633.88 16.808C634.024 16.64 634.096 16.424 634.096 16.208C634.096 15.968 634 15.704 633.808 15.536L633.304 15.128C633.136 14.984 632.944 14.912 632.728 14.912C632.488 14.912 632.248 15.008 632.08 15.2L628.504 19.328C628.336 19.52 628.264 19.76 628.264 20C628.264 20.24 628.336 20.48 628.504 20.672L631.984 24.8C632.152 24.992 632.416 25.112 632.656 25.112C632.872 25.112 633.064 25.04 633.232 24.896L633.76 24.488C633.952 24.32 634.072 24.056 634.072 23.816C634.072 23.6 634 23.408 633.856 23.24L631.12 20ZM625.888 20L628.648 16.808C628.792 16.64 628.864 16.424 628.864 16.208C628.864 15.968 628.768 15.704 628.576 15.536L628.072 15.128C627.904 14.984 627.712 14.912 627.496 14.912C627.256 14.912 627.016 15.008 626.848 15.2L623.272 19.328C623.104 19.52 623.032 19.76 623.032 20C623.032 20.24 623.104 20.48 623.272 20.672L626.752 24.8C626.92 24.992 627.184 25.112 627.424 25.112C627.64 25.112 627.832 25.04 628 24.896L628.528 24.488C628.72 24.32 628.84 24.056 628.84 23.816C628.84 23.6 628.768 23.408 628.624 23.24L625.888 20ZM643.796 15.536C643.604 15.704 643.508 15.968 643.508 16.208C643.508 16.424 643.58 16.64 643.724 16.808L646.484 20L643.748 23.24C643.604 23.408 643.532 23.6 643.532 23.816C643.532 24.056 643.652 24.32 643.844 24.488L644.372 24.896C644.54 25.04 644.732 25.112 644.948 25.112C645.188 25.112 645.452 24.992 645.62 24.8L649.1 20.72C649.268 20.528 649.364 20.264 649.364 20.024C649.364 19.76 649.268 19.52 649.1 19.328L645.524 15.2C645.356 15.008 645.116 14.912 644.852 14.912C644.66 14.912 644.444 14.96 644.3 15.128L643.796 15.536ZM638.54 15.536C638.348 15.704 638.252 15.968 638.252 16.208C638.252 16.424 638.324 16.64 638.468 16.808L641.228 20L638.492 23.24C638.348 23.408 638.276 23.6 638.276 23.816C638.276 24.056 638.396 24.32 638.588 24.488L639.116 24.896C639.284 25.04 639.476 25.112 639.692 25.112C639.932 25.112 640.196 24.992 640.364 24.8L643.844 20.72C644.012 20.528 644.108 20.264 644.108 20.024C644.108 19.76 644.012 19.52 643.844 19.328L640.268 15.2C640.1 15.008 639.86 14.912 639.596 14.912C639.404 14.912 639.188 14.96 639.044 15.128L638.54 15.536Z" fill="black"/>
<circle cx="677" cy="14" r="1" fill="#010101"/>
<circle cx="677" cy="20" r="1" fill="#010101"/>
<circle cx="677" cy="26" r="1" fill="#010101"/>
<line x1="708" y1="14" x2="722" y2="14" stroke="black" stroke-width="2" stroke-linecap="round"/>
<line x1="708" y1="26" x2="722" y2="26" stroke="black" stroke-width="2" stroke-linecap="round"/>
<line x1="708" y1="20" x2="722" y2="20" stroke="black" stroke-width="2" stroke-linecap="round"/>
<path d="M703.78 13.565V15.77C703.78 15.895 703.885 16 704.01 16H704.3C704.425 16 704.53 15.895 704.53 15.77V12.73C704.53 12.605 704.425 12.5 704.3 12.5H704.11C704.005 12.5 703.935 12.54 703.855 12.6L703.195 13.08C703.13 13.125 703.095 13.195 703.095 13.27C703.095 13.315 703.11 13.365 703.14 13.405L703.295 13.62C703.34 13.685 703.415 13.72 703.485 13.72C703.535 13.72 703.58 13.705 703.62 13.675L703.78 13.565Z" fill="black"/>
<path d="M705.395 21.53C705.395 21.405 705.29 21.3 705.165 21.3H704.105C704.365 21.1 705.275 20.39 705.275 19.405C705.275 18.91 704.925 18.46 704.245 18.46C703.71 18.46 703.325 18.71 703.15 19.14C703.135 19.17 703.13 19.205 703.13 19.235C703.13 19.32 703.18 19.395 703.255 19.43L703.495 19.53C703.545 19.55 703.585 19.56 703.625 19.56C703.715 19.56 703.78 19.505 703.845 19.405C703.92 19.29 704.025 19.21 704.155 19.21C704.355 19.21 704.475 19.305 704.475 19.555C704.475 20.13 703.81 20.75 703.255 21.285C703.18 21.355 703.135 21.42 703.135 21.52V21.77C703.135 21.895 703.24 22 703.365 22H705.165C705.29 22 705.395 21.895 705.395 21.77V21.53Z" fill="black"/>
<path d="M704.21 24.44C703.85 24.44 703.55 24.565 703.265 24.785C703.21 24.825 703.18 24.895 703.18 24.965C703.18 25.015 703.195 25.07 703.225 25.11L703.345 25.28C703.395 25.35 703.465 25.385 703.54 25.385C703.59 25.385 703.64 25.37 703.685 25.345C703.84 25.25 703.99 25.19 704.14 25.19C704.375 25.19 704.46 25.335 704.46 25.485C704.46 25.725 704.245 25.835 703.98 25.835C703.87 25.835 703.78 25.925 703.78 26.03V26.37C703.78 26.49 703.875 26.585 704 26.585C704.39 26.585 704.595 26.705 704.595 26.97C704.595 27.15 704.46 27.31 704.155 27.31C704.005 27.31 703.825 27.225 703.635 27.075C703.58 27.03 703.52 27.01 703.465 27.01C703.4 27.01 703.34 27.035 703.285 27.09L703.115 27.26C703.07 27.305 703.05 27.37 703.05 27.435C703.05 27.49 703.065 27.55 703.105 27.59C703.43 27.935 703.77 28.06 704.205 28.06C704.875 28.06 705.395 27.66 705.395 27C705.395 26.58 705.17 26.255 704.74 26.16C705.09 25.995 705.26 25.75 705.26 25.335C705.26 24.785 704.825 24.44 704.21 24.44Z" fill="black"/>
<path d="M752.84 23.832C752.84 25.92 754.256 27.144 756.224 27.144C757.688 27.144 758.84 26.568 759.416 25.848C759.416 26.616 759.896 27.144 760.592 27.144C761.336 27.144 761.816 26.52 761.816 25.92V20.424C761.816 17.568 760.688 15.936 757.496 15.936C756.464 15.936 755.456 16.2 754.736 16.512C754.232 16.728 753.944 17.112 753.944 17.544C753.944 17.688 753.968 17.832 754.04 18C754.232 18.384 754.568 18.576 754.976 18.576C755.168 18.576 755.336 18.528 755.528 18.48C755.984 18.336 756.488 18.24 757.208 18.24C758.72 18.24 759.224 19.104 759.224 20.688C759.224 20.808 759.224 20.904 759.224 21.024C758.696 20.64 757.736 20.328 756.776 20.328C754.592 20.328 752.84 21.456 752.84 23.832ZM759.224 23.832C758.888 24.312 758.288 24.816 757.136 24.816C756.272 24.816 755.6 24.36 755.6 23.544C755.6 22.632 756.416 22.2 757.328 22.2C758.12 22.2 758.744 22.368 759.224 22.728V23.832Z" fill="black"/>
<path d="M785.395 27.53C785.395 27.405 785.29 27.3 785.165 27.3H784.105C784.365 27.1 785.275 26.39 785.275 25.405C785.275 24.91 784.925 24.46 784.245 24.46C783.71 24.46 783.325 24.71 783.15 25.14C783.135 25.17 783.13 25.205 783.13 25.235C783.13 25.32 783.18 25.395 783.255 25.43L783.495 25.53C783.545 25.55 783.585 25.56 783.625 25.56C783.715 25.56 783.78 25.505 783.845 25.405C783.92 25.29 784.025 25.21 784.155 25.21C784.355 25.21 784.475 25.305 784.475 25.555C784.475 26.13 783.81 26.75 783.255 27.285C783.18 27.355 783.135 27.42 783.135 27.52V27.77C783.135 27.895 783.24 28 783.365 28H785.165C785.29 28 785.395 27.895 785.395 27.77V27.53Z" fill="black"/>
<path d="M771.84 23.832C771.84 25.92 773.256 27.144 775.224 27.144C776.688 27.144 777.84 26.568 778.416 25.848C778.416 26.616 778.896 27.144 779.592 27.144C780.336 27.144 780.816 26.52 780.816 25.92V20.424C780.816 17.568 779.688 15.936 776.496 15.936C775.464 15.936 774.456 16.2 773.736 16.512C773.232 16.728 772.944 17.112 772.944 17.544C772.944 17.688 772.968 17.832 773.04 18C773.232 18.384 773.568 18.576 773.976 18.576C774.168 18.576 774.336 18.528 774.528 18.48C774.984 18.336 775.488 18.24 776.208 18.24C777.72 18.24 778.224 19.104 778.224 20.688C778.224 20.808 778.224 20.904 778.224 21.024C777.696 20.64 776.736 20.328 775.776 20.328C773.592 20.328 771.84 21.456 771.84 23.832ZM778.224 23.832C777.888 24.312 777.288 24.816 776.136 24.816C775.272 24.816 774.6 24.36 774.6 23.544C774.6 22.632 775.416 22.2 776.328 22.2C777.12 22.2 777.744 22.368 778.224 22.728V23.832Z" fill="black"/>
</svg>
