<svg width="23" height="21" viewBox="0 0 23 21" fill="none" xmlns="http://www.w3.org/2000/svg">
<path d="M21.4598 4.25692C20.4331 2.9599 19.0384 1.93529 17.2758 1.18337C15.5132 0.431454 13.5879 0.055542 11.5 0.055542C9.41223 0.055542 7.48695 0.431454 5.72432 1.18337C3.96169 1.93529 2.56701 2.95971 1.5402 4.25692C0.513339 5.55404 0 6.96764 0 8.49785C0 9.81692 0.387061 11.0529 1.1615 12.2049C1.93593 13.3569 2.99466 14.3244 4.33818 15.107C4.24396 15.4587 4.13274 15.7928 4.00435 16.1097C3.876 16.4262 3.76051 16.6857 3.65784 16.8881C3.55507 17.0901 3.41616 17.3145 3.24061 17.5605C3.06533 17.8069 2.93272 17.9807 2.84285 18.0819C2.75308 18.183 2.60549 18.3499 2.4 18.5831C2.19478 18.816 2.06208 18.9679 2.00224 19.0383C1.99357 19.0428 1.9594 19.0821 1.89952 19.1572C1.83969 19.2319 1.80966 19.269 1.80966 19.269L1.73265 19.3878C1.68981 19.4534 1.67057 19.4953 1.67479 19.5126C1.67911 19.5304 1.67057 19.5743 1.64917 19.6445C1.62772 19.715 1.62993 19.7678 1.65555 19.8029V19.8162C1.68981 19.9656 1.75818 20.0866 1.86086 20.1789C1.96354 20.271 2.07925 20.3171 2.20746 20.3171H2.2717C2.82802 20.2466 3.31569 20.1502 3.73489 20.027C5.97679 19.4379 7.94486 18.3738 9.63898 16.8346C10.2807 16.905 10.901 16.9401 11.4999 16.9401C13.5877 16.9401 15.5131 16.5643 17.2757 15.8121C19.0383 15.0601 20.433 14.0359 21.4597 12.7388C22.4866 11.4418 23 10.028 23 8.49781C23 6.96782 22.4867 5.55404 21.4598 4.25692ZM20.0159 11.8618C19.1214 12.8993 17.915 13.7239 16.3962 14.335C14.8775 14.9459 13.2452 15.2518 11.4997 15.2518C10.9778 15.2518 10.4217 15.2166 9.8313 15.1461L9.09971 15.0672L8.5478 15.5686C7.49549 16.5185 6.31885 17.2702 5.01826 17.8243C5.41179 17.1121 5.71128 16.3557 5.91673 15.5556L6.26324 14.2891L5.14665 13.6298C4.03429 12.9786 3.17233 12.207 2.5604 11.3143C1.94857 10.4219 1.64278 9.48291 1.64278 8.49804C1.64278 7.29319 2.08986 6.17201 2.98396 5.13428C3.87834 4.09664 5.08466 3.27214 6.6035 2.66096C8.12234 2.04973 9.75434 1.74387 11.5 1.74387C13.2455 1.74387 14.8774 2.04959 16.3962 2.66078C17.9149 3.272 19.1213 4.09646 20.0158 5.1341C20.91 6.17183 21.357 7.29305 21.357 8.49781C21.357 9.70257 20.91 10.824 20.0159 11.8618Z" fill="#CDCDCD"/>
</svg>
